Coordinates
version=1
nRows=14
nColumns=36
inDegrees=yes

Units are S.I. units (second, meters, Newtons, ...)
If the header above contains a line with 'inDegrees', this indicates whether rotational values are in degrees (yes) or radians (no).

endheader
time	pelvis_tilt	pelvis_list	pelvis_rotation	pelvis_tx	pelvis_ty	pelvis_tz	hip_flexion_r	hip_adduction_r	hip_rotation_r	knee_angle_r	knee_angle_r_beta	ankle_angle_r	subtalar_angle_r	mtp_angle_r	hip_flexion_l	hip_adduction_l	hip_rotation_l	knee_angle_l	knee_angle_l_beta	ankle_angle_l	subtalar_angle_l	mtp_angle_l	lumbar_extension	lumbar_bending	lumbar_rotation	arm_flex_r	arm_add_r	arm_rot_r	elbow_flex_r	pro_sup_r	arm_flex_l	arm_add_l	arm_rot_l	elbow_flex_l	pro_sup_l
      0.00000000	      0.63122858	     -2.05483726	      4.52604117	     -0.30101432	      0.93295383	     -0.02096754	     47.39790736	     -2.64462188	      3.70018874	     28.65937635	      0.50020048	     -1.22889666	    -10.86785279	     -6.99234211	     20.01030434	      4.85647104	      2.47397274	     33.62011893	      0.58678177	     17.04135048	     -4.60592925	     -6.99234211	    -15.93777721	     -1.24963244	     -6.73027138	     54.51572134	      0.39958242	     55.40807616	    116.65628091	     79.32902868	     59.83367342	     -4.13239031	     64.49583879	    127.14142934	     75.49237354
      0.01666670	      1.58613571	     -3.72938351	      5.55699649	     -0.29906868	      0.92193155	     -0.01898973	     47.03389159	     -2.09837201	      1.29358114	     25.16561929	      0.43922291	      5.93454634	      0.42866722	     -7.08548556	     21.34833102	      3.23889554	      2.27156346	     37.75676549	      0.65897987	     19.32501893	     -5.02686114	     -7.08548556	    -18.01008992	      0.89296225	     -3.79888427	     59.33539280	     -2.78800821	     63.38939246	    123.93166910	     94.48019193	     63.11558479	     -1.83477675	     62.32176486	    128.80568080	     97.89033139
      0.03333330	      2.31715008	     -2.61194419	      4.38168768	     -0.30333862	      0.91431428	     -0.00934998	     47.48785841	     -2.66494427	     -0.90888284	     24.50740976	      0.42773499	      9.03514599	      6.12679371	     -7.11338679	     24.05353384	      3.69186031	     -0.00576560	     42.97388184	      0.75003573	     19.51560678	     -8.31033804	     -7.11338679	    -18.99049614	     -0.56751364	     -3.14782282	     60.07975028	     -1.17072284	     60.48147418	    122.29901294	     93.81938929	     64.78930722	     -3.78069097	     61.49836619	    128.91237197	     97.78714586
      0.05000000	      2.62157870	     -1.05662941	      5.10266454	     -0.30800434	      0.90828362	     -0.01224169	     48.27812543	     -4.81128471	     -1.71593535	     25.41173580	      0.44351846	     11.83981561	      9.68276438	     -7.12670452	     26.09339960	      5.67375010	     -0.52756148	     46.24712071	      0.80716453	     22.01369104	     -6.55080161	     -7.12670452	    -20.38690810	     -1.60405204	     -4.03179845	     61.84489748	     -0.18079952	     60.26476450	    122.18467005	     94.41581863	     66.67066397	     -4.17427285	     62.72093710	    129.69484727	     99.21525915
      0.06666670	      2.60490114	      0.68235786	      5.46598843	     -0.30839294	      0.90326581	     -0.01176579	     49.76006378	     -6.55179491	     -0.94932273	     26.89564097	      0.46941749	     11.62962663	     10.95550280	     -7.13730486	     28.05995454	      7.57811263	     -1.53880444	     48.78405108	      0.85144231	     25.02335768	     -4.88757172	     -7.13730486	    -21.98749346	     -3.44164214	     -4.55957843	     62.49332663	      0.05763086	     58.66504737	    119.12237656	     94.59334032	     68.48852388	     -3.87998466	     64.30456818	    129.93516133	    100.16787318
      0.08333330	      2.15044956	      2.44480525	      6.11023386	     -0.31492609	      0.89426718	     -0.00689900	     51.83988200	     -8.22429823	      0.62110420	     28.22699104	      0.49265393	      9.71238275	     11.09277387	     -7.15065053	     30.23632157	      9.40741998	     -2.40528393	     50.84134969	      0.88734895	     27.40525984	     -3.32537407	     -7.15065053	    -23.22278320	     -5.40951747	     -5.39883990	     63.21957707	      0.67100417	     57.39267895	    117.35642206	     94.31352730	     70.92698142	     -3.71663293	     65.31631252	    130.39728109	    100.35011148
      0.10000000	      1.39905817	      4.27759864	      6.89698380	     -0.32144516	      0.88385819	     -0.00960248	     54.28373481	     -9.95073840	      2.52888811	     29.47198142	      0.51438311	      7.49811638	     11.10223176	     -7.16126379	     32.77401023	     11.22307893	     -3.29596407	     53.04751776	      0.92585384	     29.40779327	     -1.88797942	     -7.16126379	    -24.39580249	     -7.18051298	     -6.50238899	     65.29375678	      1.06954527	     57.87214773	    118.39513095	     93.90258193	     73.96592045	     -3.52146220	     65.19239891	    130.13828313	    100.25278423
      0.11666670	      1.19733636	      5.78747412	      7.64494488	     -0.32291103	      0.87636938	     -0.00907718	     55.83008119	    -11.48840627	      4.07872123	     30.39004283	      0.53040631	      5.54403417	     11.09553509	     -7.16508510	     34.68757443	     12.74770825	     -3.83426474	     55.25337654	      0.96435334	     30.56244462	     -1.31925890	     -7.16508510	    -25.85662847	     -8.20255750	     -7.32301234	     67.03081139	      1.53882657	     58.59309175	    119.86207734	     93.72189757	     75.85170298	     -3.66188279	     64.85177031	    129.59911581	    100.14230549
      0.13333330	      1.00665499	      7.30521777	      8.34889779	     -0.32503109	      0.87288320	     -0.00898237	     57.27439653	    -12.99354972	      5.71208079	     31.18009042	      0.54419524	      3.72099946	     11.07329883	     -7.16862570	     36.30022900	     14.25559542	     -4.47816008	     57.12257327	      0.99697698	     31.36854404	     -0.95283136	     -7.16862570	    -27.45270820	     -9.23231300	     -7.93567621	     67.94741940	      1.16982381	     59.44476519	    119.99336863	     93.53715454	     76.93515312	     -4.13992887	     65.11641820	    128.34054097	    100.05097478
      0.15000000	     -0.05888873	      8.95903517	      8.95944637	     -0.33094153	      0.85583588	     -0.01161895	     59.97707552	    -14.36267281	      8.02169830	     32.57216684	      0.56849156	      2.55601153	     10.75446310	     -7.26419919	     39.09574505	     15.82763379	     -5.59947030	     59.25838387	      1.03425391	     31.69854958	     -0.91676294	     -7.26419919	    -27.83188374	    -10.77342616	     -9.04465024	     69.45635017	      0.90406236	     59.25753299	    119.03436886	     89.36276231	     79.64806954	     -3.97686810	     65.11755695	    127.40710064	     95.69810800
      0.16666670	     -0.63847275	     10.40989612	      9.76067617	     -0.32666889	      0.85299983	     -0.00819254	     61.81008065	    -15.75998809	      9.65200964	     33.56951726	      0.58589860	      1.67430038	     10.74917428	     -7.27085910	     41.07806252	     17.33396685	     -6.41498562	     61.10142794	      1.06642110	     32.17825166	     -1.21237523	     -7.27085910	    -28.88470293	    -11.65236458	     -9.96355093	     70.73868348	      0.83494580	     60.54531105	    118.99207922	     89.44370706	     80.70262633	     -3.63891155	     65.05509675	    128.09371588	     95.67945018
      0.18333330	     -1.46269484	     11.71364432	     10.85105828	     -0.33392999	      0.84818840	     -0.00395819	     63.79233208	    -17.12348430	     11.07781007	     34.43261506	      0.60096250	      0.81872986	     10.66315688	     -7.27639840	     43.22334755	     18.81219751	     -7.19224204	     62.72217456	      1.09470846	     32.14173106	     -1.95061754	     -7.27639840	    -29.87399373	    -12.34628125	    -11.10515171	     71.82402436	      1.22321595	     60.24350558	    117.96228665	     89.50012458	     82.24601436	     -2.52193922	     66.69243192	    128.58849461	     95.84800627
      0.20000000	     -2.24059972	     12.78605958	     11.84069762	     -0.34059051	      0.84179150	     -0.00792112	     65.55106912	    -18.37045868	     12.17674075	     35.11944341	      0.61294992	      0.23366199	     10.89512288	     -7.28175180	     45.22154123	     20.10613835	     -7.86562103	     64.13790792	      1.11941767	     31.88837525	     -2.74814663	     -7.28175180	    -31.09808529	    -12.72681999	    -13.00240074	     72.73264626	      1.33954056	     59.77170658	    118.24681546	     89.16717632	     83.98135536	     -3.61388069	     65.18307137	    126.53705844	     95.65049032
      0.21666670	     -2.93439928	     13.80360837	     12.64456953	     -0.34096935	      0.83776504	     -0.00832708	     67.10943840	    -19.43721112	     13.11955204	     35.66648693	      0.62249763	     -0.24025993	     11.06862354	     -7.30041357	     46.94407452	     21.33598269	     -8.50894178	     65.34708764	      1.14052184	     31.31729113	     -3.96083251	     -7.30041357	    -32.09138957	    -12.97867556	    -13.69757106	     73.90313950	      0.90240694	     61.05168274	    119.09225704	     88.12519015	     84.83903956	     -3.44922795	     66.37506240	    126.09985454	     94.90881594
